<?xml version="1.0" encoding="utf-8"?>
<!-- Generator: Adobe Illustrator 27.0.0, SVG Export Plug-In . SVG Version: 6.00 Build 0)  -->
<svg version="1.1" id="graphic-design" xmlns="http://www.w3.org/2000/svg" xmlns:xlink="http://www.w3.org/1999/xlink" x="0px"
	 y="0px" viewBox="0 0 512 512" style="enable-background:new 0 0 512 512;" xml:space="preserve">
<style type="text/css">
	.st0{fill:url(#SVGID_1_);stroke:url(#SVGID_00000039851221746558586620000001446394012364659902_);stroke-width:0.25;}
</style>
<linearGradient id="SVGID_1_" gradientUnits="userSpaceOnUse" x1="40.571" y1="256.0255" x2="471.429" y2="256.0255">
	<stop  offset="0.2593" style="stop-color:#FFDB6E"/>
	<stop  offset="1" style="stop-color:#FFBC5E"/>
</linearGradient>
<linearGradient id="SVGID_00000130614523619658741460000017754492888185200784_" gradientUnits="userSpaceOnUse" x1="40.446" y1="256.0255" x2="471.554" y2="256.0255">
	<stop  offset="0.2593" style="stop-color:#FFDB6E"/>
	<stop  offset="1" style="stop-color:#FFBC5E"/>
</linearGradient>
<path style="fill:url(#SVGID_1_);stroke:url(#SVGID_00000130614523619658741460000017754492888185200784_);stroke-width:0.25;" d="
	M439.4,86.2H381c15.9-16.4,16.5-42.9-1-59.6C363,10.2,335.1,10.3,318,26.7l-57.2,54.8l-63.2-60c-9.4-9-24.8-9-34.2,0l-37.7,35.8
	c-10.5,10-7.6,23-4.1,28.8h-49c-17.6,0-32,14.4-32,32v260.5c0,17.6,14.4,32,32,32h129v67h-34.5c-5.5,0-10,4.5-10,10s4.5,10,10,10
	h177.9c5.5,0,10-4.5,10-10s-4.5-10-10-10h-34.5v-67h129c17.6,0,32-14.4,32-32V118.2C471.4,100.5,457.1,86.2,439.4,86.2z
	 M451.4,378.7c0,6.6-5.4,12-12,12H72.6c-6.6,0-12-5.4-12-12v-11.5h390.9L451.4,378.7L451.4,378.7z M290.5,477.7h-68.9v-67h68.9
	V477.7z M60.6,347.2v-229c0-6.6,5.4-12,12-12h68.7l47.1,44.8l-47.8,45.8c-1.2,1.2-2.1,2.6-2.6,4.2l-18.2,54.4
	c-2,6.1-0.5,12.7,4,17.3c7.1,7.3,16,5.1,17.9,4.5l56.7-17.4c1.5-0.5,3-1.3,4.2-2.4l48.7-46.7l63.2,60c8.4,8,23.8,9.9,34.2,0
	l37.7-35.8l0,0c8.5-8.1,11-23.5,0-34l-62.7-59.6l36.6-35.1h79.2c6.6,0,12,5.4,12,12v229L60.6,347.2L60.6,347.2z M139.4,76.8
	c-1.6-1.9-1.6-3.1,0-5L177.2,36c1.8-1.7,4.9-1.7,6.7,0l34.4,32.7l-15.1,14.4c-4,3.8-4.2,10.1-0.4,14.1c3.8,4,10.1,4.2,14.1,0.4
	l15.8-15.1l13.5,12.9l-43.5,41.7L139.4,76.8z M366.2,41c8.4,8,9.9,22.2-0.1,31.8l-7.7,7.3l-33.7-32.3l7-6.8
	C341.3,32,356.8,32,366.2,41z M310.3,61.8l10.3,9.9l-149,141.6L162,204L310.3,61.8z M344,94L195.6,236.3l-9.5-9.1l149-141.6L344,94z
	 M307.6,196.9c3.8,4,10.1,4.2,14.1,0.4l15.8-15.1l34.9,33.2c1.6,1.9,1.6,3.1,0,5l0,0l-37.7,35.8c-1.8,1.7-4.9,1.7-6.7,0l-62.5-59.4
	l43.5-41.7l13.9,13.3L308,182.7C304,186.6,303.8,192.9,307.6,196.9z M152,222.1l24.4,23.4l-36,11.1L152,222.1z"/>
</svg>
